# xmcd
#
# Track frame offsets: 
#        150
#        10737
#        24180
#        33107
#        47320
#        60972
#        71915
#        82967
#        102547
#        119970
#        134912
#        151137
#
# Disc length: 2173 seconds
#
# Revision: 0
# Processed by: cddbd v1.5.2PL0 Copyright (c) Steve Scherf et al.
# Submitted via: ExactAudioCopy v1.2
#
DISCID=96087b0c
DTITLE=Richard Ormsby - Portrait of a Miner
DYEAR=1990
DGENRE=Folk
TTITLE0=Tramp Miner
TTITLE1=Last Train
TTITLE2=Cripple Creek
TTITLE3=Hard Rock Blues
TTITLE4=Heart of a Miner
TTITLE5=Hard Travelin'
TTITLE6=Night in Creede
TTITLE7=North Country Blues
TTITLE8=Day in the Life
TTITLE9=Dark as a Dungeon
TTITLE10=Men Who Won't Fit in
TTITLE11=Mosey on Down the Road
EXTD=
EXTT0=
EXTT1=
EXTT2=
EXTT3=
EXTT4=
EXTT5=
EXTT6=
EXTT7=
EXTT8=
EXTT9=
EXTT10=
EXTT11=
PLAYORDER=
